<svg xmlns="http://www.w3.org/2000/svg" width="4460.577" height="2192.503" viewBox="0 0 4460.577 2192.503">
  <g id="Group_1" data-name="Group 1" transform="translate(-1006.267 -831.169)">
    <path id="Path_1" data-name="Path 1" d="M3766.361,997.875l-99.835,61.923-86.565,20.22-110.576,11.945-154.807,10.17-171.867,44.23-228.735,61.291L2795.47,875.086l-52.752-80.516h-43.034l18.047-45.811V681.5l-23.6-56.292-9.718-43.034-19.435-20.823h-99.95l-90.233,69.41-93.818-48.587-135.236-8.329-20.823-36.093-16.658-30.54,16.658-38.87-16.658-24.988-33.317-22.211-33.317-9.717-47.2,31.929,13.882,18.047-25.282,16.658h-35.8l-48.587-23.6H1952.83l-62.18-22.628,62.18,118.414,21.628,99.951-52.571,8.3-19.714,23H1825.78l-38.607,16.429-67.357-29.571L1533.87,709.75l-243.63,92.038L1086.312,650.2l-73.991-218.365L885.993,496.258l-83.917,23.461,35.191-171.263L885.993,214.73,949.156,73.966,849.9,50.505,756.057,73.966l-162.42,35.191L503.4,117.819l-76.7-8.662-30.5-58.652L349.286,73.966,267.174,149.04l-86.8,65.69-70.382,89.15L9.107,348.456l-107.919,147.8L-274.767,843.475l-166.571,234.606-213.492,143.11,150.148,525.518L-16.7,1521.487l37.537,84.458,30.5,77.42,44.575,32.845,35.191,16.423s-9.384,2.346,39.883,0c51.613,14.076,46.921,79.766,46.921,79.766l-30.5,119.649-30.5,25.807-37.537,18.769v53.959l51.613,157.186h37.537l154.84-44.575,58.652-14.076,32.845,14.076,42.229,30.5,86.8,44.575,103.227,18.769,58.652-37.537,100.881-11.73H905.3l18.769-25.807L905.3,2143.194l-46.921-30.5v-32.845L905.3,1976.624l211.146-293.258,129.034-77.42,103.227-46.921,107.919-48.466,37.537,10.928,107.919-31.71,131.38-32.036,51.613-24.643,61-10.147,30.5-12.853,14.076-24.684,21.115,24.684,63.344,79.678h32.845l75.074-56.678,107.919-10.147h82.112l107.919-12.853,87.151-36.143,87.892-20.372h73.928l101.035,56.515,38.607,23,9.036,24.643,6.572,32.036,18.071,17.25,25.3,3.531s-4.271,0,49.121-7.475c151.635-8.543,211.434-149.5,211.434-149.5l-54.46-160.177,276.572-76.885s201.823-14.95,281.911-24.56,205.027-68.342,205.027-68.342Z" transform="translate(1664 784)" fill="#f38a8a" stroke="#000" stroke-width="5"/>
    <g id="Ellipse_1" data-name="Ellipse 1" transform="translate(5139.146 1813.166)" fill="#f38a8a" stroke="#000" stroke-width="5">
      <circle cx="62.64" cy="62.64" r="62.64" stroke="none"/>
      <circle cx="62.64" cy="62.64" r="60.14" fill="none"/>
    </g>
  </g>
</svg>
